<svg width="166" height="63" viewBox="0 0 166 63" fill="none" xmlns="http://www.w3.org/2000/svg">
<path d="M52.0083 40.4602C50.2627 40.4602 48.7005 40.076 47.3128 39.2987C45.9338 38.5215 44.8429 37.4561 44.0487 36.0937C43.2544 34.7314 42.853 33.1856 42.853 31.4652C42.853 29.7448 43.2544 28.1729 44.0487 26.8367C44.8429 25.5006 45.9251 24.4439 47.2953 23.6666C48.6656 22.8894 50.2366 22.5051 52.0083 22.5051C53.78 22.5051 55.316 22.8894 56.7037 23.6492C58.0827 24.4089 59.1649 25.4656 59.9504 26.8192C60.7359 28.1729 61.1287 29.7186 61.1287 31.4652C61.1287 33.2118 60.7359 34.7576 59.9504 36.1112C59.1649 37.4648 58.0827 38.5215 56.7037 39.2987C55.3248 40.076 53.7538 40.4602 52.0083 40.4602V40.4602ZM52.0083 37.6744C53.1341 37.6744 54.1465 37.4211 55.0455 36.9146C55.9444 36.4081 56.6426 35.6833 57.1488 34.7401C57.655 33.7969 57.9081 32.714 57.9081 31.4739C57.9081 30.2338 57.655 29.1248 57.1488 28.2078C56.6426 27.2908 55.9357 26.5747 55.0455 26.0682C54.1465 25.5617 53.1341 25.3084 52.0083 25.3084C50.8824 25.3084 49.8787 25.5617 48.9885 26.0682C48.107 26.5747 47.4001 27.2908 46.8677 28.2078C46.3353 29.1248 46.0735 30.2164 46.0735 31.4739C46.0735 32.7315 46.3353 33.8057 46.8677 34.7401C47.4001 35.6833 48.107 36.4081 48.9885 36.9146C49.87 37.4211 50.8824 37.6744 52.0083 37.6744Z" fill="white"/>
<path d="M66.6009 40.2594V22.6711H69.6556V27.448L69.3588 26.2516C69.8476 25.0377 70.6592 24.1033 71.8113 23.4658C72.9633 22.8282 74.3772 22.5051 76.0529 22.5051V25.5879C75.922 25.5704 75.7911 25.553 75.6689 25.553H75.3198C73.6179 25.553 72.2651 26.0595 71.2702 27.0812C70.2752 28.103 69.7778 29.5701 69.7778 31.4914V40.2506H66.5922L66.6009 40.2594Z" fill="white"/>
<path d="M88.1582 39.5344C86.4563 39.5344 84.9377 39.1764 83.5936 38.4603C82.2496 37.7442 81.1935 36.7399 80.408 35.4561C79.6225 34.1724 79.2298 32.6878 79.2298 31.011C79.2298 29.3343 79.6225 27.8235 80.408 26.5484C81.1935 25.2734 82.2583 24.2866 83.5936 23.5792C84.9289 22.8718 86.4476 22.5138 88.1582 22.5138C89.6593 22.5138 91.0296 22.8195 92.2689 23.422C93.5082 24.0333 94.4944 24.9678 95.2363 26.2253C95.9781 27.4829 96.3447 29.081 96.3447 31.0023C96.3447 32.9236 95.9781 34.4868 95.2363 35.7443C94.4944 37.0019 93.5082 37.9538 92.2689 38.5825C91.0296 39.2113 89.6593 39.5257 88.1582 39.5257V39.5344ZM88.5596 46.9051C86.945 46.9051 85.3828 46.6781 83.8642 46.2239C82.3456 45.7698 81.115 45.1236 80.1637 44.2852L81.691 41.8312C82.5114 42.5386 83.5151 43.0975 84.7108 43.508C85.9064 43.9184 87.1545 44.1193 88.4549 44.1193C90.5321 44.1193 92.0594 43.6302 93.0282 42.6609C93.997 41.6915 94.4857 40.2069 94.4857 38.2158V34.4955L94.8174 31.011L94.6515 27.4916V22.6797H97.6713V37.8752C97.6713 40.9754 96.8945 43.2547 95.3498 44.7131C93.805 46.1715 91.5358 46.9051 88.5509 46.9051H88.5596ZM88.5247 36.7486C89.6942 36.7486 90.7328 36.5041 91.6405 36.015C92.5482 35.526 93.2638 34.8535 93.7788 33.989C94.3024 33.1244 94.5555 32.1288 94.5555 31.0023C94.5555 29.8757 94.2937 28.8802 93.7788 28.0156C93.2638 27.151 92.5482 26.4873 91.6405 26.007C90.7328 25.5354 89.6942 25.2909 88.5247 25.2909C87.3552 25.2909 86.3079 25.5267 85.3915 26.007C84.4751 26.4786 83.7507 27.151 83.2358 28.0156C82.7209 28.8802 82.459 29.8757 82.459 31.0023C82.459 32.1288 82.7209 33.1244 83.2358 33.989C83.7594 34.8535 84.4751 35.526 85.3915 36.015C86.3079 36.5041 87.3552 36.7486 88.5247 36.7486Z" fill="white"/>
<path d="M109.951 40.4602C108.642 40.4602 107.499 40.2418 106.521 39.7964C105.535 39.3511 104.776 38.7398 104.252 37.9538C103.72 37.1678 103.458 36.277 103.458 35.2815C103.458 34.2859 103.685 33.465 104.138 32.6965C104.592 31.9193 105.334 31.2992 106.364 30.8364C107.394 30.3735 108.782 30.1377 110.527 30.1377H116.095V32.4258H110.658C109.07 32.4258 107.996 32.6878 107.438 33.2205C106.888 33.7532 106.608 34.3907 106.608 35.1417C106.608 36.0063 106.949 36.6962 107.638 37.2202C108.319 37.7442 109.27 37.9974 110.492 37.9974C111.714 37.9974 112.735 37.7355 113.625 37.2027C114.524 36.67 115.17 35.9015 115.563 34.8798L116.191 37.0717C115.772 38.111 115.031 38.9319 113.966 39.5432C112.901 40.1545 111.566 40.4514 109.951 40.4514V40.4602ZM115.72 40.2593V36.539L115.554 35.8404V29.5002C115.554 28.1553 115.161 27.1074 114.376 26.3651C113.59 25.6228 112.412 25.256 110.841 25.256C109.803 25.256 108.782 25.4306 107.787 25.7712C106.792 26.1118 105.954 26.5747 105.264 27.151L103.938 24.7582C104.845 24.0246 105.936 23.4657 107.202 23.0815C108.476 22.6972 109.803 22.4963 111.199 22.4963C113.608 22.4963 115.467 23.0815 116.767 24.2517C118.068 25.4219 118.722 27.2209 118.722 29.6312V40.2506H115.703L115.72 40.2593Z" fill="white"/>
<path d="M135.087 22.5051C136.527 22.5051 137.792 22.7846 138.883 23.3348C139.974 23.8849 140.838 24.732 141.449 25.8586C142.06 26.9852 142.374 28.4174 142.374 30.1378V40.2594H139.189V30.5046C139.189 28.8016 138.778 27.5179 137.949 26.6533C137.12 25.7887 135.951 25.3608 134.45 25.3608C133.324 25.3608 132.337 25.5791 131.5 26.0245C130.662 26.4699 130.016 27.1162 129.562 27.9807C129.108 28.8453 128.881 29.9195 128.881 31.2032V40.2594H125.696V22.6711H128.75V27.4131L128.253 26.1555C128.829 25.0028 129.71 24.112 130.906 23.4658C132.102 22.8282 133.49 22.5051 135.087 22.5051V22.5051Z" fill="white"/>
<path d="M156.88 40.4602C155.134 40.4602 153.572 40.076 152.184 39.2987C150.805 38.5215 149.714 37.4561 148.92 36.0937C148.126 34.7314 147.724 33.1856 147.724 31.4652C147.724 29.7448 148.126 28.1729 148.92 26.8367C149.714 25.5006 150.796 24.4439 152.167 23.6666C153.537 22.8894 155.108 22.5051 156.88 22.5051C158.651 22.5051 160.187 22.8894 161.575 23.6492C162.963 24.4089 164.036 25.4656 164.822 26.8192C165.607 28.1729 166 29.7186 166 31.4652C166 33.2118 165.607 34.7576 164.822 36.1112C164.036 37.4648 162.954 38.5215 161.575 39.2987C160.196 40.076 158.625 40.4602 156.88 40.4602ZM156.88 37.6744C158.005 37.6744 159.018 37.4211 159.917 36.9146C160.816 36.4081 161.514 35.6833 162.02 34.7401C162.526 33.7969 162.779 32.714 162.779 31.4739C162.779 30.2338 162.526 29.1248 162.02 28.2078C161.514 27.2908 160.807 26.5747 159.917 26.0682C159.018 25.5617 158.014 25.3084 156.88 25.3084C155.745 25.3084 154.741 25.5617 153.86 26.0682C152.978 26.5747 152.271 27.2908 151.739 28.2078C151.207 29.1248 150.945 30.2164 150.945 31.4739C150.945 32.7315 151.207 33.8057 151.739 34.7401C152.271 35.6833 152.978 36.4081 153.86 36.9146C154.741 37.4211 155.754 37.6744 156.88 37.6744Z" fill="white"/>
<path d="M5.30667 12.2263C5.52486 12.663 5.96997 12.9425 6.45872 12.9425C6.94747 12.9425 7.39258 12.663 7.61077 12.2263L12.795 1.86899C12.9957 1.46727 12.9695 0.995686 12.7339 0.611434C12.4982 0.227181 12.0793 0.00012207 11.6342 0.00012207H1.29195C0.846844 0.00012207 0.427917 0.235914 0.192271 0.611434C-0.0433758 0.995686 -0.060831 1.46727 0.131177 1.86899L5.30667 12.2263ZM9.5483 2.5851L6.46745 8.75934L3.38659 2.5851H9.5483V2.5851ZM6.46745 37.9713C8.18679 37.9713 9.82759 37.2901 11.0407 36.0762C12.2539 34.8623 12.9346 33.2118 12.9346 31.5001C12.9346 29.7885 12.2539 28.1379 11.0407 26.924C9.82759 25.7101 8.17806 25.029 6.46745 25.029C4.75683 25.029 3.1073 25.7101 1.89416 26.924C0.681019 28.1379 0.000262606 29.7885 0.000262606 31.5001C0.000262606 33.2118 0.681019 34.8623 1.89416 36.0762C3.1073 37.2901 4.7481 37.9713 6.46745 37.9713V37.9713ZM6.46745 27.6139C7.49731 27.6139 8.48353 28.0244 9.21665 28.7492C9.94105 29.4741 10.3512 30.4696 10.3512 31.5001C10.3512 32.5306 9.94105 33.5175 9.21665 34.251C8.49226 34.9759 7.49731 35.3863 6.46745 35.3863C5.43758 35.3863 4.45136 34.9759 3.71824 34.251C2.99384 33.5262 2.58364 32.5306 2.58364 31.5001C2.58364 30.4696 2.99384 29.4828 3.71824 28.7492C4.44263 28.0244 5.43758 27.6139 6.46745 27.6139ZM1.29195 63.0001H11.6429C12.3586 63.0001 12.9346 62.4237 12.9346 61.7076V51.3503C12.9346 50.6342 12.3586 50.0578 11.6429 50.0578H1.29195C0.576287 50.0578 0.000262606 50.6342 0.000262606 51.3503V61.7076C0.000262606 62.4237 0.576287 63.0001 1.29195 63.0001V63.0001ZM2.58364 52.6428H10.3512V60.4151H2.58364V52.6428V52.6428ZM23.2856 55.2365V32.7926H15.9544C15.2387 32.7926 14.6627 32.2162 14.6627 31.5001C14.6627 30.784 15.2387 30.2076 15.9544 30.2076H23.2856V7.76378H15.9544C15.2387 7.76378 14.6627 7.1874 14.6627 6.47129C14.6627 5.75518 15.2387 5.1788 15.9544 5.1788H24.5773C25.293 5.1788 25.869 5.75518 25.869 6.47129V30.2076H33.2002C33.9159 30.2076 34.4919 30.784 34.4919 31.5001C34.4919 32.2162 33.9159 32.7926 33.2002 32.7926H25.869V56.529C25.869 57.2451 25.293 57.8214 24.5773 57.8214H15.9544C15.2387 57.8214 14.6627 57.2451 14.6627 56.529C14.6627 55.8129 15.2387 55.2365 15.9544 55.2365H23.2856V55.2365Z" fill="white"/>
</svg>
